<svg width="413" height="155" viewBox="0 0 413 155" fill="none" xmlns="http://www.w3.org/2000/svg">
<path d="M273.765 108.587C273.204 110.716 272.979 112.957 272.192 114.974C268.933 123.155 263.764 129.542 255.785 133.577C255.223 133.801 254.661 134.025 254.1 134.249C249.492 135.594 245.784 133.016 245.559 128.31C245.334 125.508 245.896 122.931 247.02 120.465C249.043 115.871 251.964 112.061 255.785 108.811C257.246 107.578 258.932 107.578 259.943 108.811C260.955 109.931 260.73 111.5 259.269 112.845C255.223 116.543 251.964 120.689 250.953 126.18C250.953 126.629 250.841 127.189 250.841 127.637C250.953 129.43 251.627 129.766 253.313 129.094C263.09 125.172 270.282 111.388 267.81 101.191C266.236 94.4669 261.966 91.2171 254.774 90.5447C248.481 89.9844 242.75 91.4412 237.468 94.691C236.794 95.1393 236.794 95.5875 236.794 96.1478C236.794 103.544 236.681 110.94 237.131 118.224C237.468 123.379 238.03 128.534 239.153 133.577C239.378 134.473 239.491 135.033 240.727 134.809C241.738 134.585 242.637 135.145 243.087 135.93C244.772 138.619 245.671 141.421 244.997 144.671C244.548 146.688 242.974 147.584 240.951 146.8C238.254 145.791 236.794 143.55 235.782 141.085C233.984 136.602 233.197 131.896 232.636 127.077C231.512 117.552 231.399 107.914 231.399 98.3891C231.399 97.3805 231.512 96.5961 230.051 96.484C228.253 96.2599 227.579 94.0186 228.702 92.5618C228.815 92.3377 228.927 92.2257 229.152 92.1136C231.737 90.993 231.624 88.6397 231.737 86.2864C232.186 72.0545 232.973 57.8226 234.658 43.5907C234.883 41.9098 235.108 40.2288 235.557 38.5479C236.119 36.3067 238.03 35.074 239.94 35.5222C241.626 35.9705 242.862 38.2117 242.412 40.2289C242.3 40.9012 241.963 41.5736 241.289 41.9098C240.502 42.246 240.277 42.8063 240.165 43.5907C239.378 50.2024 238.816 56.9261 238.367 63.5378C237.805 71.2701 237.355 78.8903 237.131 86.6226C237.131 87.8552 237.355 87.9673 238.479 87.6311C243.424 86.1743 247.469 83.1486 251.403 80.123C258.145 75.1922 264.551 69.7012 269.72 63.0895C276.238 54.5728 280.396 44.8234 282.194 34.1775C282.868 30.2553 282.643 26.3331 281.632 22.523C280.171 16.8079 276.35 13.7822 270.731 12.8857C261.516 11.5409 253.313 14.3425 246.121 19.9456C234.546 28.9106 226.904 40.6771 221.398 53.9004C219.6 58.1588 218.027 62.4171 217.69 67.0117C217.69 68.1323 217.69 69.1409 217.802 70.2615C217.802 71.8303 217.015 72.951 215.554 73.1751C213.981 73.3992 212.857 72.6148 212.52 71.0459C211.846 67.9082 212.408 64.8825 213.082 61.9689C216.341 49.1938 222.634 37.9876 230.613 27.79C236.007 20.9542 242.412 15.239 250.279 11.3168C256.909 7.95495 264.101 6.72227 271.518 7.95495C279.609 9.18764 286.015 14.2304 287.475 24.204C288.712 32.4966 286.801 40.2288 284.104 47.9611C278.822 62.8654 268.821 73.8475 256.459 83.1486C255.673 83.7089 254.886 84.3813 253.875 85.0537C254.437 85.5019 254.999 85.3899 255.448 85.5019C265.562 86.2864 272.08 92.3377 273.428 102.423C273.653 103.656 273.653 105.001 273.878 106.233C273.99 107.13 274.103 108.026 273.878 108.811L273.765 108.587Z" fill="white" fill-opacity="0.1"/>
<path d="M273.766 108.586C273.766 107.69 273.766 106.905 273.766 106.009C273.766 106.009 273.878 106.009 273.99 106.009C273.99 106.905 273.99 107.802 273.99 108.586C273.99 108.586 273.766 108.586 273.653 108.586H273.766Z" fill="white" fill-opacity="0.1"/>
<path d="M413 91.4427C411.989 90.3221 410.528 90.0979 409.292 91.1065C408.842 91.4427 408.505 91.7789 408.056 92.2271C403.223 96.9337 398.728 101.977 394.57 107.355C393.896 108.252 393.222 109.036 392.323 110.045C392.21 107.692 392.098 105.675 391.873 103.769C391.311 96.8216 390.862 89.7617 389.289 82.926C388.952 81.3571 388.39 80.0123 386.592 79.7882C384.794 79.5641 383.782 80.6847 382.996 82.0295C382.097 83.8225 381.31 85.6154 380.523 87.4084C378.276 92.4512 376.478 97.6061 373.331 102.201C372.657 103.209 371.983 104.666 370.634 104.554C369.398 104.442 368.948 102.873 368.499 101.752C366.701 97.2699 366.364 92.4512 366.364 87.6326C366.364 86.3999 366.364 85.1672 366.813 83.9345C367.6 81.9174 367.263 80.4606 365.577 79.9003C364.004 79.34 362.655 80.0123 361.869 82.0295C361.082 84.1586 360.745 86.3999 360.97 88.5291C361.194 90.8824 360.295 92.5633 358.947 94.2442C358.61 94.6925 358.273 95.1407 357.936 95.4769C355.576 98.0543 352.766 100.184 349.62 102.201C349.62 101.416 349.62 100.968 349.732 100.408C349.957 95.0287 349.17 89.8738 346.024 85.2793C343.214 81.133 339.281 79.9003 334.561 81.5812C331.19 82.8139 328.38 84.719 326.133 87.6326C325.908 87.9688 325.683 88.6411 324.897 88.417C324.897 88.0808 325.122 87.8567 325.122 87.6326C327.706 78.4435 330.066 69.2544 332.089 59.9532C335.011 46.8419 337.483 33.6186 337.82 20.0591C337.932 14.7922 337.595 9.52528 335.123 4.59454C333.662 1.68093 331.19 0 327.819 0C324.672 0 322.537 1.79299 321.076 4.48248C319.727 6.94785 318.941 9.52528 318.267 12.2148C316.244 21.7401 316.019 31.4895 315.794 41.1268C315.682 47.9626 315.907 54.7984 316.244 61.6342C316.581 71.0474 317.03 80.5726 317.929 89.9859C317.929 90.6582 318.042 91.2185 317.705 91.8909C315.457 96.5975 312.76 101.08 309.614 105.338C308.265 107.131 306.917 108.812 304.894 109.933C304.107 110.381 303.545 110.269 303.32 109.373C303.208 108.812 302.983 108.364 302.983 107.804C302.309 103.77 302.534 99.6232 302.871 95.589C303.208 91.5547 303.77 87.5205 304.557 83.5983C304.894 81.9174 304.107 80.5727 302.759 80.2365C301.185 79.7882 300.062 80.5726 299.387 82.3656C298.825 83.8224 298.601 85.3913 297.589 87.1843C297.364 86.7361 297.14 86.3999 296.915 86.1758C291.296 81.0209 285.003 81.5812 280.62 87.8567C276.8 93.3477 274.44 99.3991 273.765 106.123C273.204 107.019 273.204 107.916 273.765 108.7C273.765 109.261 273.878 109.821 273.99 110.269C275.226 115.2 278.485 117.105 283.317 115.648C286.914 114.64 289.611 112.286 291.97 109.597C293.881 107.355 295.454 104.89 297.14 101.977C297.252 103.994 297.365 105.675 297.477 107.355C297.702 109.821 298.264 112.174 299.949 114.079C301.298 115.648 302.983 116.208 305.006 115.648C308.377 114.64 310.625 112.398 312.872 109.821C314.895 107.468 316.581 104.666 318.267 102.089C318.716 102.313 318.828 102.537 318.828 102.873C319.166 106.907 319.615 110.941 319.84 114.976C320.177 120.019 320.626 125.061 321.638 129.992C322.087 131.897 323.099 132.682 324.784 132.345C326.245 132.121 327.032 131.001 326.807 129.208C326.358 124.837 325.796 120.579 325.459 116.208C324.897 110.045 325.122 103.77 326.92 97.8302C328.268 93.2357 330.516 89.2014 335.235 87.0722C338.382 85.6154 340.18 86.1758 341.753 89.2014C344.338 93.908 344.45 98.9508 343.551 104.106C343.327 105.563 342.652 106.459 341.304 107.131C338.607 108.476 336.022 110.045 333.55 111.838C332.651 112.622 331.639 113.295 330.965 114.303C329.954 115.872 329.954 118.562 330.965 120.019C331.977 121.363 334.112 122.26 335.573 121.699C339.506 120.243 343.214 118.226 345.012 114.303C346.81 110.381 349.844 108.028 353.328 105.787C356.25 103.994 358.835 101.752 361.419 99.0629C361.644 99.9594 361.869 100.632 361.981 101.304C362.543 103.545 363.442 105.563 364.903 107.355C367.375 110.381 370.971 110.829 374.118 108.476C375.466 107.468 376.478 106.123 377.377 104.666C379.961 100.632 381.984 96.2613 383.782 91.7789C384.007 91.3306 384.007 90.6582 384.681 90.3221C385.693 98.6147 386.03 106.683 386.479 114.864C386.479 116.096 386.254 117.105 385.468 118.113C375.354 132.345 366.476 147.362 359.621 163.499C357.149 169.214 355.351 175.153 353.553 181.204C352.766 185.351 351.98 189.497 351.755 193.755C351.53 197.79 351.642 201.712 353.328 205.41C355.463 209.892 359.396 211.461 364.116 209.556C366.476 208.548 368.611 207.203 370.522 205.522C377.714 199.134 382.546 191.178 385.355 182.101C386.816 177.394 387.828 172.688 388.951 167.869C389.513 164.171 390.075 160.585 390.525 156.887C391.873 144.56 392.323 132.345 391.873 119.906C391.873 118.674 392.21 117.665 392.997 116.657C398.841 109.036 404.909 101.528 411.989 94.8045C413.112 93.796 413.225 92.3392 412.213 91.2186L413 91.4427ZM294.667 95.4769C292.982 99.287 290.959 102.985 288.15 106.235C286.801 107.804 285.34 109.036 283.542 109.933C280.396 111.39 279.384 110.717 279.384 106.347C280.058 101.192 281.632 95.3649 285.565 90.4341C288.15 87.1843 290.51 87.0723 293.656 89.9859C295.304 91.5547 295.641 93.3851 294.667 95.4769ZM323.211 75.866C323.211 75.866 323.099 76.3143 322.986 76.6505C322.874 76.6505 322.762 76.6505 322.649 76.6505C322.425 70.375 322.087 63.9875 321.863 57.712C321.526 49.7556 321.413 41.9112 321.863 33.9548C322.087 26.5587 322.424 19.0506 324.335 11.8786C324.784 10.0856 325.459 8.40464 326.47 6.83577C327.819 4.81866 329.504 4.93072 330.853 6.83577C332.089 8.85289 332.538 11.2062 332.876 13.5595C333.55 19.1626 333.1 24.6536 332.426 30.1447C330.628 45.6093 327.257 60.7376 323.436 75.866H323.211ZM387.266 135.819C387.041 144.56 386.479 153.189 385.131 161.93C384.681 165.18 384.232 168.541 383.22 171.679C380.973 183.67 376.478 194.54 366.589 202.608C365.577 203.393 364.566 204.177 363.33 204.737C360.745 205.858 359.396 205.298 358.497 202.608C357.936 201.039 357.823 199.471 357.711 197.902C357.486 191.738 358.722 185.687 360.52 179.748C362.992 170.334 366.701 161.594 371.084 152.965C375.579 144.112 380.748 135.707 386.254 127.415C386.479 127.078 386.816 126.63 387.266 126.07C387.491 129.544 387.266 132.794 387.266 135.931V135.819Z" fill="white" fill-opacity="0.1"/>
<path d="M23.278 89.2009C28.1102 87.9683 32.6053 86.1753 36.8756 83.934C46.3152 78.7792 53.395 71.1589 58.789 62.0819C63.846 53.6773 68.0039 45.0485 69.6896 35.2991C70.5886 30.4804 70.9257 25.5497 69.802 20.731C68.7906 16.3606 66.2059 13.7831 62.7222 13.559C59.8004 13.447 56.8786 13.6711 53.9568 14.0073C41.3707 15.352 31.5939 21.9637 23.1656 30.9286C16.0859 38.3247 11.1413 46.9535 6.75865 56.1426C6.30915 57.0391 5.97202 57.8236 6.98341 58.608C7.77005 59.1683 7.65767 60.2889 7.43292 61.1854C6.87104 62.7543 3.94924 63.7628 2.03883 62.9784C0.353183 62.4181 -0.433452 60.6251 0.240808 58.8321C6.64628 42.359 15.7488 28.015 30.6949 17.9294C40.1345 11.5419 50.5855 8.40417 61.9356 8.40417C67.3297 8.40417 71.2628 10.9816 73.5104 15.8003C75.6455 20.3948 76.0951 25.4376 75.5332 30.3683C72.6114 53.3411 61.7108 71.8313 43.6182 86.1753C37.9994 90.6577 31.3691 93.2352 24.4018 94.5799C23.278 94.804 23.0533 95.2523 23.0533 96.2609C22.8285 108.364 22.6038 120.354 23.278 132.457C23.278 134.25 23.6152 136.155 23.7275 137.948C23.7275 138.508 23.7275 138.957 24.6265 138.957C26.4246 138.957 26.9865 140.301 27.0988 141.87C27.2112 143.775 26.5369 145.456 25.4132 147.025C24.177 148.706 21.9295 148.37 21.0305 146.353C19.5696 143.215 19.1201 139.853 18.6706 136.491C17.5468 126.406 17.5468 116.32 17.4344 106.122C17.4344 102.985 17.4344 99.8468 17.6592 96.7091C17.6592 95.8126 17.4344 95.4764 16.423 95.5885C15.1869 95.5885 13.8384 95.5885 12.4899 95.5885C11.4785 95.5885 10.5795 95.0282 10.2423 94.0196C9.90521 93.0111 9.9052 92.0025 10.8042 91.2181C12.4899 89.6492 14.2879 88.0803 16.6478 87.7441C17.7716 87.6321 17.8839 87.0718 17.8839 86.1753C18.2211 77.2103 18.6706 68.2453 19.0077 59.2804C19.0077 58.4959 19.0077 57.8236 19.1201 57.0391C19.2325 55.9185 19.1201 55.1341 17.9963 54.3496C16.5354 53.229 17.0973 50.9878 19.2325 49.0827C20.6934 47.738 22.7161 47.85 23.8399 49.3068C24.4018 50.0913 24.4018 50.9878 24.4018 51.9963C24.177 57.9356 23.9523 63.8749 23.7275 69.7021C23.5028 75.5294 23.278 81.3566 23.0533 87.1838C23.0533 87.8562 23.0533 88.4165 23.0533 89.313L23.278 89.2009Z" fill="white" fill-opacity="0.1"/>
<path d="M214.88 93.2378C213.869 92.1171 212.183 92.1171 210.723 93.5739C207.464 96.7117 204.317 99.9615 201.395 103.435C199.148 106.013 197.013 108.702 194.653 111.616C194.316 107.582 194.091 103.772 193.754 100.074C193.304 94.8066 192.742 89.5397 191.506 84.3848C191.169 83.0401 190.495 82.1436 189.034 81.9195C187.685 81.6954 186.674 82.2557 186 83.3763C185.55 83.9366 185.213 84.4969 184.988 85.1693C183.64 88.307 182.179 91.3327 180.83 94.4704C179.257 97.9444 177.796 101.418 175.549 104.556C173.751 107.021 172.852 107.021 171.503 104.108C170.492 101.979 169.93 99.7374 169.705 97.4961C169.256 93.3498 168.469 89.2035 170.042 85.0572C170.492 83.8245 169.93 82.7039 168.581 82.1436C167.345 81.5833 166.221 81.8074 165.435 82.928C165.098 83.4884 164.76 84.1607 164.648 84.8331C163.861 87.1864 163.974 89.6518 163.974 92.0051C163.974 92.6774 163.974 93.3498 163.524 94.0222C160.49 99.177 157.119 104.108 153.298 108.814C150.938 111.84 148.241 114.53 145.095 116.771C142.06 118.9 140.038 118.9 136.891 116.883C134.531 115.314 132.846 113.185 131.497 110.832C128.575 105.677 127.339 99.8494 126.44 94.1343C124.305 81.3592 124.979 68.472 125.991 55.697C125.991 54.4643 126.552 54.1281 127.676 53.904C132.733 52.8954 137.902 51.9989 143.072 51.4386C149.14 50.7662 155.208 50.6542 161.164 52.7833C162.738 53.3436 164.199 52.7833 164.648 51.3265C165.21 49.7577 164.648 48.4129 162.738 47.8526C157.119 45.8355 151.275 45.6114 145.432 46.0596C139.476 46.5079 133.632 47.4044 127.789 48.6371C127.002 48.7491 126.665 48.8612 126.89 47.8526C127.114 46.1717 127.451 44.6028 128.463 43.2581C129.811 41.353 130.71 39.2238 131.385 36.9826C131.722 35.862 131.947 34.6293 131.834 33.5087C131.609 31.6036 130.261 29.9227 128.575 29.6986C127.002 29.4744 125.878 30.2589 124.979 32.276C124.754 32.9483 124.53 33.6207 124.305 34.2931C122.844 38.8876 122.057 43.7063 121.495 48.525C121.383 49.7577 120.821 50.2059 119.697 50.5421C110.258 53.0075 100.818 55.6969 91.7157 59.1709C89.9176 59.8432 89.131 61.188 89.6929 62.6448C90.2548 64.2137 91.7157 64.774 93.6261 64.1016C101.38 61.3001 109.246 58.8347 117.225 56.7055C120.821 55.809 120.709 55.809 120.372 59.395C119.473 70.265 119.36 81.135 120.709 92.0051C120.709 92.6774 120.934 93.2378 120.596 93.9101C117.787 99.177 114.191 103.996 110.033 108.366C108.909 109.599 107.786 110.719 106.437 111.616C106.1 111.84 105.763 112.288 105.313 112.064C104.864 111.84 104.976 111.28 105.088 110.832C105.088 107.694 105.538 104.556 106.1 101.53C106.774 97.3841 107.786 93.1257 107.898 88.8673C108.123 83.7125 105.313 81.2471 100.144 82.1436C98.4583 82.3677 96.885 82.816 95.1993 83.0401C94.0756 83.2642 93.4013 83.0401 93.9632 81.5833C94.9746 78.8938 95.5365 76.0923 94.4127 73.2907C93.7384 71.6098 92.7271 70.265 90.7043 70.0409C88.6815 69.8168 87.2206 70.7133 86.0968 72.2821C83.6245 75.644 83.5122 80.6868 85.9845 84.2728C86.3216 84.8331 86.7711 85.1693 86.3216 85.9537C82.6132 93.2378 79.1295 100.634 74.2973 107.358C73.0611 108.926 71.825 110.495 70.2517 111.728C68.5661 112.961 68.229 112.849 67.7794 110.832C66.6557 106.013 67.2176 101.082 67.6671 96.1514C68.0042 92.6774 68.5661 89.3156 69.128 85.9537C69.3527 84.2728 68.4537 83.0401 67.1052 82.816C65.7567 82.5919 64.6329 83.2642 64.071 84.8331C63.6215 86.2899 63.0596 87.8588 62.6101 89.4276C61.8235 88.7553 61.2616 88.307 60.6997 87.8588C55.6428 83.9366 50.0239 84.609 46.0908 89.6518C42.8318 93.9101 40.809 98.6167 39.5729 103.772C38.7863 106.909 38.4491 110.047 39.3481 113.185C40.4719 116.995 43.0566 118.564 46.9898 118.003C49.0125 117.667 50.9229 116.883 52.6086 115.65C56.0923 113.185 58.5646 109.935 60.6997 106.349C61.0368 105.789 61.2616 105.004 61.9359 104.556C62.0482 106.573 62.1606 108.478 62.3854 110.271C62.6101 112.625 63.3967 114.754 65.0824 116.435C66.2062 117.555 67.5547 118.003 69.2403 117.667C71.7126 117.219 73.623 115.762 75.4211 114.081C78.7924 110.831 81.1523 106.909 83.3998 102.987C85.9845 98.5047 88.3444 93.7981 90.5919 89.0914C90.8167 88.6432 90.8167 87.8588 91.7157 88.0829C94.5251 88.7553 97.2221 88.307 100.032 87.6347C102.504 86.9623 102.729 87.1864 102.391 89.7638C101.83 94.2463 100.931 98.8409 100.369 103.323C99.9192 106.573 99.3573 109.823 99.8068 113.185C100.369 117.219 103.515 118.9 107.336 117.219C108.347 116.771 109.359 116.098 110.258 115.426C112.955 113.409 115.09 110.944 117.113 108.366C118.798 106.237 120.484 103.996 122.17 101.754C123.069 105.453 124.193 108.926 125.766 112.288C127.901 116.547 130.598 120.245 134.981 122.71C139.026 124.951 142.847 124.839 146.78 122.598C148.578 121.589 150.264 120.245 151.837 118.788C156.332 114.417 160.153 109.599 163.524 104.332C163.974 103.66 164.199 102.875 164.985 102.427C165.66 105.228 166.559 107.806 168.357 109.935C170.829 112.737 174.2 113.185 177.122 110.944C178.583 109.823 179.594 108.478 180.606 106.909C183.303 102.539 185.438 97.9444 187.348 93.1257C187.798 93.686 187.798 94.3584 187.798 94.9187C188.472 101.642 188.809 108.366 189.259 115.09C189.483 117.891 188.809 120.021 187.236 122.374C176.335 137.838 166.896 154.087 160.378 172.017C157.231 180.646 155.096 189.499 155.208 198.8C155.208 201.826 155.658 204.852 157.231 207.541C159.366 211.239 162.738 212.472 166.783 211.015C169.031 210.231 171.054 208.998 172.964 207.429C179.032 202.274 183.64 195.999 186.562 188.603C191.619 175.715 193.417 162.044 194.316 148.372C194.877 139.631 195.102 130.779 194.877 122.038C194.877 121.365 194.877 120.805 195.327 120.245C201.171 112.624 207.126 105.116 214.094 98.3926C215.667 96.8237 215.892 95.479 214.768 94.2463L214.88 93.2378ZM60.1378 95.2549C58.2274 99.8494 56.0923 104.332 52.721 108.03C51.1477 109.823 49.3497 111.28 47.1021 111.952C45.0794 112.625 44.1803 112.064 44.1803 110.047C44.1803 102.987 46.4279 96.7117 51.0353 91.4448C51.822 90.5483 52.8333 89.8759 53.9571 89.8759C55.7551 89.8759 59.6883 92.7895 60.2502 94.3584C60.3626 94.6946 60.2502 95.0308 60.1378 95.2549ZM189.596 139.407C189.371 146.019 188.921 152.743 188.022 159.354C186.562 169.664 184.764 179.974 180.156 189.499C177.571 194.878 173.638 199.248 169.031 203.059C168.019 203.955 166.896 204.627 165.547 205.076C163.637 205.748 162.513 205.3 161.614 203.395C160.49 200.929 160.378 198.352 160.49 195.775C161.052 184.232 164.873 173.586 169.368 163.052C174.65 150.726 181.505 139.295 188.921 128.201C189.034 127.977 189.259 127.753 189.483 127.417C189.483 131.563 189.596 135.485 189.483 139.407H189.596Z" fill="white" fill-opacity="0.1"/>
<path d="M89.9172 76.4261C90.142 77.0985 89.8048 77.3226 89.5801 77.8829C89.2429 77.0985 89.5801 76.7623 89.9172 76.4261Z" fill="white" fill-opacity="0.1"/>
</svg>
